<?xml version="1.0" standalone="no"?>
<!DOCTYPE svg PUBLIC "-//W3C//DTD SVG 20010904//EN"
 "http://www.w3.org/TR/2001/REC-SVG-20010904/DTD/svg10.dtd">
<svg version="1.0" xmlns="http://www.w3.org/2000/svg"
 width="40.000000pt" height="40.000000pt" viewBox="0 0 40.000000 40.000000"
 preserveAspectRatio="xMidYMid meet">

<g transform="translate(0.000000,40.000000) scale(0.100000,-0.100000)"
fill="#000000" stroke="none">
<path d="M124 341 c-77 -47 -100 -122 -62 -198 33 -67 66 -88 138 -88 72 0
105 21 138 88 19 37 22 55 17 87 -8 46 -43 93 -86 115 -39 21 -108 19 -145 -4z
m146 -10 c129 -68 77 -266 -70 -266 -81 0 -142 59 -142 138 0 114 113 182 212
128z"/>
<path d="M109 283 c-13 -16 -12 -17 4 -4 9 7 17 15 17 17 0 8 -8 3 -21 -13z"/>
<path d="M115 210 c0 -29 5 -50 11 -50 6 0 10 18 10 42 -1 27 4 43 13 46 10 3
13 -2 9 -22 -4 -17 -1 -25 6 -23 17 6 20 38 4 48 -7 5 -22 9 -33 9 -18 0 -20
-7 -20 -50z"/>
<path d="M190 254 c0 -20 24 -94 31 -94 4 0 11 10 15 22 l6 21 13 -22 c11 -21
13 -22 19 -6 4 10 2 23 -4 29 -5 5 -10 20 -10 33 0 13 -6 23 -14 23 -9 0 -12
-7 -9 -19 3 -11 1 -27 -5 -37 -8 -14 -10 -10 -16 20 -4 20 -11 36 -16 36 -6 0
-10 -3 -10 -6z"/>
<path d="M285 239 c-10 -30 -2 -32 12 -3 6 13 7 24 3 24 -5 0 -12 -9 -15 -21z"/>
<path d="M82 205 c0 -16 2 -22 5 -12 2 9 2 23 0 30 -3 6 -5 -1 -5 -18z"/>
<path d="M312 205 c0 -16 2 -22 5 -12 2 9 2 23 0 30 -3 6 -5 -1 -5 -18z"/>
<path d="M90 161 c0 -6 4 -13 10 -16 6 -3 7 1 4 9 -7 18 -14 21 -14 7z"/>
<path d="M296 153 c-6 -14 -5 -15 5 -6 7 7 10 15 7 18 -3 3 -9 -2 -12 -12z"/>
<path d="M218 93 c7 -3 16 -2 19 1 4 3 -2 6 -13 5 -11 0 -14 -3 -6 -6z"/>
</g>
</svg>
